# xmcd
#
# Track frame offsets: 
#        150
#        11507
#        22346
#        37154
#        50461
#        61269
#        71815
#        87230
#        102406
#        115639
#        127481
#        137716
#        148438
#        160570
#        173165
#        189283
#        202147
#        216623
#        237611
#        253622
#
# Disc length: 3523 seconds
#
# Revision: 0
# Processed by: cddbd v1.5.2PL0 Copyright (c) Steve Scherf et al.
# Submitted via: ExactAudioCopy v1.0b6
#
DISCID=3e0dc114
DTITLE=Various Artist - Forever Nashville CD2
DYEAR=2015
DGENRE=Country
TTITLE0=Willie Nelson - Night Life
TTITLE1=Webb Pierce - There Stands The Glass
TTITLE2=The Million Dollar Quartet - Crazy Arms
TTITLE3=The Carter Family - Coal Miner's Blues
TTITLE4=Johnny Cash - I Heard That Lonesome Whistle Blow
TTITLE5=Patsy Cline - Gotta Lot Of Rhythm
TTITLE6=Anne Murray - There Goes My Everything
TTITLE7=Bill Monroe and His Bluegrass Boys - In The Pines
TTITLE8=Carl Perkins - Country Soul
TTITLE9=Delbert McClinton - Don't Cry No More
TTITLE10=Don Gibson - Don't Tell Me Your Troubles
TTITLE11=Faron Young - Hello Walls
TTITLE12=Freddy Fender - Lovin' Cajun Style [Live]
TTITLE13=Jimmie Dale and The Flatlanders - Dallas
TTITLE14=John Anderson - Bad Morning For Leaving
TTITLE15=Kenny Rogers - Reuben James
TTITLE16=Lynn Anderson - Faithless Love
TTITLE17=Marty Robbins - El Paso
TTITLE18=Jerry Lee Lewis - She Even Woke Me Up To Say Goodbye [Live]
TTITLE19=Bud Hobbs and His Trail Herders feat. Buck Owens - Louisiana Sw
TTITLE19=ing
EXTD=
EXTT0=
EXTT1=
EXTT2=
EXTT3=
EXTT4=
EXTT5=
EXTT6=
EXTT7=
EXTT8=
EXTT9=
EXTT10=
EXTT11=
EXTT12=
EXTT13=
EXTT14=
EXTT15=
EXTT16=
EXTT17=
EXTT18=
EXTT19=
PLAYORDER=
